<?xml version="1.0"?>
<svg width="640" height="480" xmlns="http://www.w3.org/2000/svg" xmlns:svg="http://www.w3.org/2000/svg">
 <!-- Created with SVG-edit - https://github.com/SVG-Edit/svgedit-->
 <g class="layer">
  <title>Layer 1</title>
  <rect fill="#FF0000" height="78" id="svg_1" stroke="#000000" stroke-width="5" width="151" x="45.1" y="72.5"/>
  <rect fill="#ffff00" height="76" id="svg_2" stroke="#000000" stroke-width="5" width="143" x="218.1" y="103.5"/>
  <rect fill="#ff56ff" height="88" id="svg_3" stroke="#000000" stroke-dasharray="null" stroke-linecap="null" stroke-linejoin="null" stroke-width="5" width="149" x="63.1" y="192.5"/>
  <polygon cx="282.1" cy="240.5" edge="57.788888" fill="#00bfbf" id="svg_4" orient="x" points="331.25816413845934,240.5 297.29070813105704,287.25219233298844 242.33020979971334,269.39444391035914 242.33020979971332,211.60555608964088 297.29070813105704,193.74780766701153 331.25816413845934,240.5 " shape="regularPoly" sides="5" stroke="#000000" stroke-width="5" strokeWidth="5" strokecolor="#000000"/>
  <polygon cx="557.1" cy="293.5" edge="0" fill="#00bfbf" id="svg_5" orient="x" shape="regularPoly" sides="5" strokeWidth="5" strokecolor="#000000"/>
  <polygon cx="441.1" cy="209.5" fill="#aaaaff" id="svg_6" orient="point" point="5" points="397.1000061035156,65.66448974609375 419.6322937011719,130.4869842529297 488.2449951171875,131.88519287109375 433.5579833984375,173.34591674804688 453.4306945800781,239.03256225585938 397.1000061035156,199.83419799804688 340.769287109375,239.03256225585938 360.6419982910156,173.34591674804688 305.95501708984375,131.88519287109375 374.5677185058594,130.4869842529297 397.1000061035156,65.66448974609375 419.6322937011719,130.4869842529297 " r="95.835507" r2="38.334203" shape="star" stroke-width="5" strokeWidth="5" strokecolor="none"/>
  <ellipse cx="210.1" cy="288.5" fill="#aaaaff" id="svg_8" rx="46" ry="46" stroke-dasharray="null" stroke-linecap="null" stroke-linejoin="null" stroke-width="5"/>
  <rect fill="#bf5f00" height="147" id="svg_9" stroke-dasharray="null" stroke-linecap="null" stroke-linejoin="null" stroke-width="5" width="312" x="292.1" y="304.5"/>
  <rect fill="#5656ff" height="103.000003" id="svg_10" stroke-dasharray="null" stroke-linecap="null" stroke-linejoin="null" stroke-width="5" width="230" x="43.1" y="345.499997"/>
  <rect fill="#5656ff" height="241" id="svg_11" stroke-dasharray="null" stroke-linecap="null" stroke-linejoin="null" stroke-width="5" width="85" x="515.1" y="42.5"/>
 </g>
</svg>