<svg id="Capa_1" enable-background="new 0 0 512 512" height="512" viewBox="0 0 512 512" width="512" xmlns="http://www.w3.org/2000/svg"><g><path d="m127.524 360.788h-99.55v-146.867l14.634-20.603h67.977l16.939 20.603z" fill="#e7ecf6"/><path d="m109.551 193.317v167.471h17.973v-146.867z" fill="#d8e2f1"/><path d="m422.913 187.868h-85.391v-54.425c0-2.048 1.66-3.708 3.708-3.708h77.975c2.048 0 3.708 1.66 3.708 3.708z" fill="#eab14d"/><path d="m403.675 129.735v58.133h19.238v-54.425c0-2.048-1.66-3.708-3.708-3.708z" fill="#e49542"/><g><path d="m380.217 151.56c-4.268 0-7.726-3.459-7.726-7.726v-14.099c0-4.268 3.459-7.726 7.726-7.726s7.726 3.459 7.726 7.726v14.099c0 4.267-3.458 7.726-7.726 7.726z" fill="#2b4d66"/></g><path d="m301.582 187.868h-85.391v-54.425c0-2.048 1.66-3.708 3.708-3.708h77.975c2.048 0 3.708 1.66 3.708 3.708z" fill="#eab14d"/><path d="m282.344 129.735v58.133h19.238v-54.425c0-2.048-1.66-3.708-3.708-3.708z" fill="#e49542"/><g><path d="m258.886 151.56c-4.268 0-7.726-3.459-7.726-7.726v-14.099c0-4.268 3.459-7.726 7.726-7.726s7.726 3.459 7.726 7.726v14.099c0 4.267-3.458 7.726-7.726 7.726z" fill="#2b4d66"/></g><path d="m180.251 187.868h-85.391v-58.133h81.683c2.048 0 3.708 1.66 3.708 3.708z" fill="#eab14d"/><path d="m94.86 129.735h49.775v58.133h-49.775z" fill="#e49542"/><path d="m505.406 436.374h-498.812c-3.642 0-6.594-2.952-6.594-6.594v-53.45c0-8.584 6.958-15.542 15.542-15.542h480.916c8.584 0 15.542 6.958 15.542 15.542v53.449c0 3.643-2.952 6.595-6.594 6.595z" fill="#365e7d"/><path d="m496.458 360.788h-22.172c8.584 0 15.542 6.958 15.542 15.542v60.044h15.577c3.642 0 6.594-2.952 6.594-6.594v-53.45c.001-8.583-6.957-15.542-15.541-15.542z" fill="#2b4d66"/><path d="m119.374 75.626h-83.25c-4.501 0-8.15 3.649-8.15 8.15v130.145h99.55v-130.145c0-4.501-3.649-8.15-8.15-8.15z" fill="#80b4fb"/><path d="m119.374 75.626h-17.542c4.501 0 8.15 3.649 8.15 8.15v130.145h17.542v-130.145c0-4.501-3.649-8.15-8.15-8.15z" fill="#61a2f9"/><path d="m484.026 360.788h-356.502v-146.867h350.407c3.366 0 6.095 2.729 6.095 6.095z" fill="#c3d5ef"/><path d="m477.931 213.921h-19.003c3.366 0 6.094 2.729 6.094 6.095v140.773h19.003v-140.773c.001-3.366-2.728-6.095-6.094-6.095z" fill="#b7c8ea"/><path d="m445.131 187.868h-317.607v26.053h339.752v-3.909c0-12.23-9.915-22.144-22.145-22.144z" fill="#365e7d"/><path d="m127.524 187.868h17.111v26.053h-17.111z" fill="#2b4d66"/><path d="m445.131 187.868h-24.294c12.23 0 22.145 9.914 22.145 22.145v3.908h24.294v-3.908c0-12.231-9.915-22.145-22.145-22.145z" fill="#2b4d66"/><g><path d="m77.749 336.462c-4.268 0-7.726-3.459-7.726-7.726v-45.406c0-4.268 3.459-7.726 7.726-7.726 4.268 0 7.726 3.459 7.726 7.726v45.405c0 4.268-3.458 7.727-7.726 7.727z" fill="#365e7d"/></g><circle cx="77.749" cy="267.418" fill="#df6b57" r="17.973"/><path d="m273.106 360.788h-112.093v-102.068c0-2.047 1.66-3.707 3.707-3.707h104.679c2.047 0 3.707 1.66 3.707 3.707z" fill="#e7ecf6"/><path d="m269.399 255.013h-18.61c2.047 0 3.707 1.66 3.707 3.707v102.069h18.61v-102.069c0-2.048-1.66-3.707-3.707-3.707z" fill="#d8e2f1"/><circle cx="331.273" cy="303.197" fill="#e7ecf6" r="30.096"/><path d="m331.273 273.101c-3.013 0-5.92.448-8.664 1.272 12.397 3.722 21.431 15.215 21.431 28.824s-9.035 25.102-21.431 28.824c2.744.824 5.652 1.272 8.664 1.272 16.621 0 30.096-13.474 30.096-30.096 0-16.621-13.474-30.096-30.096-30.096z" fill="#d8e2f1"/><g><path d="m331.273 310.924c-4.268 0-7.726-3.459-7.726-7.726v-30.096c0-4.268 3.459-7.726 7.726-7.726s7.726 3.459 7.726 7.726v30.096c.001 4.267-3.458 7.726-7.726 7.726z" fill="#df6b57"/></g><circle cx="425.656" cy="303.197" fill="#e7ecf6" r="30.096"/><path d="m425.656 273.101c-3.013 0-5.92.448-8.664 1.272 12.397 3.722 21.431 15.215 21.431 28.824s-9.035 25.102-21.431 28.824c2.744.824 5.652 1.272 8.664 1.272 16.621 0 30.096-13.474 30.096-30.096 0-16.621-13.474-30.096-30.096-30.096z" fill="#d8e2f1"/><g><path d="m425.656 310.924c-1.978 0-3.955-.755-5.464-2.264-3.017-3.017-3.017-7.909.001-10.927l21.282-21.281c3.016-3.017 7.908-3.016 10.927.001 3.017 3.017 3.017 7.909-.001 10.927l-21.282 21.281c-1.509 1.508-3.487 2.263-5.463 2.263z" fill="#df6b57"/></g><g><g><path d="m189.919 287.097h-6.032c-4.268 0-7.726-3.459-7.726-7.726s3.459-7.726 7.726-7.726h6.032c4.268 0 7.726 3.459 7.726 7.726s-3.458 7.726-7.726 7.726z" fill="#2b4d66"/></g><g><path d="m220.075 287.097h-6.032c-4.268 0-7.726-3.459-7.726-7.726s3.459-7.726 7.726-7.726h6.032c4.268 0 7.726 3.459 7.726 7.726s-3.458 7.726-7.726 7.726z" fill="#2b4d66"/></g><g><path d="m250.231 287.097h-6.032c-4.268 0-7.726-3.459-7.726-7.726s3.459-7.726 7.726-7.726h6.032c4.268 0 7.726 3.459 7.726 7.726s-3.458 7.726-7.726 7.726z" fill="#2b4d66"/></g></g><g><g><path d="m189.919 315.627h-6.032c-4.268 0-7.726-3.459-7.726-7.726s3.459-7.726 7.726-7.726h6.032c4.268 0 7.726 3.459 7.726 7.726s-3.458 7.726-7.726 7.726z" fill="#2b4d66"/></g><g><path d="m220.075 315.627h-6.032c-4.268 0-7.726-3.459-7.726-7.726s3.459-7.726 7.726-7.726h6.032c4.268 0 7.726 3.459 7.726 7.726s-3.458 7.726-7.726 7.726z" fill="#2b4d66"/></g><g><path d="m250.231 315.627h-6.032c-4.268 0-7.726-3.459-7.726-7.726s3.459-7.726 7.726-7.726h6.032c4.268 0 7.726 3.459 7.726 7.726s-3.458 7.726-7.726 7.726z" fill="#2b4d66"/></g></g><g><g><path d="m189.919 344.157h-6.032c-4.268 0-7.726-3.459-7.726-7.726s3.459-7.726 7.726-7.726h6.032c4.268 0 7.726 3.459 7.726 7.726s-3.458 7.726-7.726 7.726z" fill="#2b4d66"/></g><g><path d="m220.075 344.157h-6.032c-4.268 0-7.726-3.459-7.726-7.726s3.459-7.726 7.726-7.726h6.032c4.268 0 7.726 3.459 7.726 7.726s-3.458 7.726-7.726 7.726z" fill="#2b4d66"/></g><g><path d="m250.231 344.157h-6.032c-4.268 0-7.726-3.459-7.726-7.726s3.459-7.726 7.726-7.726h6.032c4.268 0 7.726 3.459 7.726 7.726s-3.458 7.726-7.726 7.726z" fill="#2b4d66"/></g></g><g><g><path d="m95.29 119.269h-35.083c-4.268 0-7.726-3.459-7.726-7.726 0-4.268 3.459-7.726 7.726-7.726h35.083c4.268 0 7.726 3.459 7.726 7.726.001 4.267-3.458 7.726-7.726 7.726z" fill="#e7ecf6"/></g><g><path d="m95.29 147.439h-35.083c-4.268 0-7.726-3.459-7.726-7.726 0-4.268 3.459-7.726 7.726-7.726h35.083c4.268 0 7.726 3.459 7.726 7.726.001 4.267-3.458 7.726-7.726 7.726z" fill="#e7ecf6"/></g><g><path d="m95.29 175.608h-35.083c-4.268 0-7.726-3.459-7.726-7.726s3.459-7.726 7.726-7.726h35.083c4.268 0 7.726 3.459 7.726 7.726s-3.458 7.726-7.726 7.726z" fill="#e7ecf6"/></g></g><g><path d="m86.679 336.462h-17.859c-4.268 0-7.726-3.459-7.726-7.726s3.459-7.726 7.726-7.726h17.859c4.268 0 7.726 3.459 7.726 7.726s-3.459 7.726-7.726 7.726z" fill="#2b4d66"/></g></g></svg>